{
    "asset" : {
        "generator" : "Khronos glTF Blender I/O v1.6.16",
        "version" : "2.0"
    },
    "scene" : 0,
    "scenes" : [
        {
            "name" : "Scene",
            "nodes" : [
                0,
                1,
                2,
                3,
                4
            ]
        }
    ],
    "nodes" : [
        {
            "name" : "Camera",
            "rotation" : [
                0.6481184363365173,
                0.0016361962771043181,
                -0.0013925102539360523,
                0.7615366578102112
            ],
            "translation" : [
                0.12384383380413055,
                1.7614532709121704,
                6.386196136474609
            ]
        },
        {
            "mesh" : 0,
            "name" : "Plane",
            "scale" : [
                3.860924005508423,
                2.493802547454834,
                2.493802547454834
            ],
            "translation" : [
                0.08052824437618256,
                0,
                0
            ]
        },
        {
            "name" : "Area",
            "translation" : [
                0,
                3.7325997352600098,
                -0.08222533762454987
            ]
        },
        {
            "mesh" : 1,
            "name" : "Gem",
            "translation" : [
                0,
                0.8077234029769897,
                0
            ]
        },
        {
            "mesh" : 2,
            "name" : "dobj",
            "translation" : [
                0,
                0.8964365124702454,
                0
            ]
        }
    ],
    "materials" : [
        {
            "doubleSided" : true,
            "name" : "plane",
            "pbrMetallicRoughness" : {
                "baseColorFactor" : [
                    0.8000000715255737,
                    0.30600646138191223,
                    0.6081162095069885,
                    1
                ],
                "metallicFactor" : 0,
                "roughnessFactor" : 0.5
            }
        },
        {
            "alphaMode" : "BLEND",
            "doubleSided" : true,
            "name" : "Material.002",
            "pbrMetallicRoughness" : {}
        },
        {
            "alphaMode" : "BLEND",
            "doubleSided" : true,
            "name" : "Material.001",
            "pbrMetallicRoughness" : {}
        }
    ],
    "meshes" : [
        {
            "name" : "Plane",
            "primitives" : [
                {
                    "attributes" : {
                        "POSITION" : 0,
                        "NORMAL" : 1,
                        "TEXCOORD_0" : 2
                    },
                    "indices" : 3,
                    "material" : 0
                }
            ]
        },
        {
            "name" : "Gem",
            "primitives" : [
                {
                    "attributes" : {
                        "POSITION" : 4,
                        "NORMAL" : 5
                    },
                    "indices" : 6,
                    "material" : 1
                }
            ]
        },
        {
            "name" : "dmesh",
            "primitives" : [
                {
                    "attributes" : {
                        "POSITION" : 7,
                        "NORMAL" : 8
                    },
                    "indices" : 9,
                    "material" : 2
                }
            ]
        }
    ],
    "accessors" : [
        {
            "bufferView" : 0,
            "componentType" : 5126,
            "count" : 18,
            "max" : [
                1,
                1.6169273853302002,
                1
            ],
            "min" : [
                -1,
                0,
                -1.0016809701919556
            ],
            "type" : "VEC3"
        },
        {
            "bufferView" : 1,
            "componentType" : 5126,
            "count" : 18,
            "type" : "VEC3"
        },
        {
            "bufferView" : 2,
            "componentType" : 5126,
            "count" : 18,
            "type" : "VEC2"
        },
        {
            "bufferView" : 3,
            "componentType" : 5123,
            "count" : 48,
            "type" : "SCALAR"
        },
        {
            "bufferView" : 4,
            "componentType" : 5126,
            "count" : 145,
            "max" : [
                0.9238795042037964,
                0.3499999940395355,
                0.9238795042037964
            ],
            "min" : [
                -0.9238795042037964,
                -0.800000011920929,
                -0.9238795042037964
            ],
            "type" : "VEC3"
        },
        {
            "bufferView" : 5,
            "componentType" : 5126,
            "count" : 145,
            "type" : "VEC3"
        },
        {
            "bufferView" : 6,
            "componentType" : 5123,
            "count" : 192,
            "type" : "SCALAR"
        },
        {
            "bufferView" : 7,
            "componentType" : 5126,
            "count" : 544,
            "max" : [
                1,
                0.3580000102519989,
                1
            ],
            "min" : [
                -1,
                -0.8619999885559082,
                -1
            ],
            "type" : "VEC3"
        },
        {
            "bufferView" : 8,
            "componentType" : 5126,
            "count" : 544,
            "type" : "VEC3"
        },
        {
            "bufferView" : 9,
            "componentType" : 5123,
            "count" : 906,
            "type" : "SCALAR"
        }
    ],
    "bufferViews" : [
        {
            "buffer" : 0,
            "byteLength" : 216,
            "byteOffset" : 0
        },
        {
            "buffer" : 0,
            "byteLength" : 216,
            "byteOffset" : 216
        },
        {
            "buffer" : 0,
            "byteLength" : 144,
            "byteOffset" : 432
        },
        {
            "buffer" : 0,
            "byteLength" : 96,
            "byteOffset" : 576
        },
        {
            "buffer" : 0,
            "byteLength" : 1740,
            "byteOffset" : 672
        },
        {
            "buffer" : 0,
            "byteLength" : 1740,
            "byteOffset" : 2412
        },
        {
            "buffer" : 0,
            "byteLength" : 384,
            "byteOffset" : 4152
        },
        {
            "buffer" : 0,
            "byteLength" : 6528,
            "byteOffset" : 4536
        },
        {
            "buffer" : 0,
            "byteLength" : 6528,
            "byteOffset" : 11064
        },
        {
            "buffer" : 0,
            "byteLength" : 1812,
            "byteOffset" : 17592
        }
    ],
    "buffers" : [
        {
            "byteLength" : 19404,
            "uri" : "1dimond.bin"
        }
    ]
}
